Genre:Comedy | Fantasy
Language:English 
http://www.imdb.com/title/tt1637725/
Source:KiNGDOM Thanks
Encoder:Tony

Format : AVI
Format/Info : Audio Video Interleave
File size : 1.38 GiB
Duration : 1h 39mn
Overall bit rate : 1 971 Kbps

Video
ID : 0
Format : MPEG-4 Visual
Format profile : Advanced Simple@L5
Format settings, BVOP : 1
Format settings, QPel : No
Format settings, GMC : No warppoints
Format settings, Matrix : Default (H.263)
Codec ID : XVID
Codec ID/Hint : XviD
Duration : 1h 39mn
Bit rate : 1 768 Kbps
Width : 640 pixels
Height : 360 pixels
Display aspect ratio : 16:9
Frame rate : 29.970 fps
Color space : YUV
Chroma subsampling : 4:2:0
Bit depth : 8 bits
Scan type : Progressive
Compression mode : Lossy
Bits/(Pixel*Frame) : 0.256
Stream size : 1.23 GiB (90%)
Writing library : XviD 1.2.1 (UTC 2008-12-04)

Audio
ID : 1
Format : AC-3
Format/Info : Audio Coding 3
Mode extension : CM (complete main)
Format settings, Endianness : Big
Codec ID : 2000
Duration : 1h 39mn
Bit rate mode : Constant
Bit rate : 192 Kbps
Channel(s) : 2 channels
Channel positions : Front: L R
Sampling rate : 48.0 KHz
Bit depth : 16 bits
Compression mode : Lossy
Stream size : 137 MiB (10%)
Alignment : Aligned on interleaves
Interleave, duration : 33 ms (1.00 video frame)
Interleave, preload duration : 512 ms


Plot:
As the result of a childhood wish, John Bennett's teddy bear, Ted, came to life and has been by John's side ever since - a friendship that's tested when Lori, John's girlfriend of four years, wants more from their relationship.
 
http://img856.imageshack.us/img856/9897/vlcsnap2012071218h02m22.png 
http://img27.imageshack.us/img27/1570/vlcsnap2012071218h02m45.png 
http://img716.imageshack.us/img716/9334/vlcsnap2012071218h03m04.png 
http://img832.imageshack.us/img832/1738/vlcsnap2012071218h03m23.png